<?xml version="1.0" encoding="utf-8"?>
<!-- Generator: Adobe Illustrator 22.0.0, SVG Export Plug-In . SVG Version: 6.00 Build 0)  -->
<svg version="1.1" id="Layer_1" xmlns="http://www.w3.org/2000/svg" xmlns:xlink="http://www.w3.org/1999/xlink" x="0px" y="0px"
	 viewBox="0 0 260.7 104.8" style="enable-background:new 0 0 260.7 104.8;" xml:space="preserve">
<style type="text/css">
	.st0{fill:#FFFFFF;}
</style>
<g>
	<path class="st0" d="M166.3,4.8C159,5.2,156,7.1,155.3,12c-0.4,3.8-0.9,8.7-0.9,19.4v12.2c0,14.5-2.2,25.6-9.6,33.4
		c-5.8,6.2-14.5,9.1-23.2,9.1c-8,0-15.7-1.7-21.7-6.5c-7.4-5.8-10.9-15.3-10.9-30.5V17.6c0-11.3-1.1-12.1-11-12.8V0h36.5v4.8
		c-9.7,0.7-10.9,1.5-10.9,12.8v29.1c0,20.3,7.5,30.8,21.7,30.8c15.7,0,22.3-12.4,22.3-34.1V31.4c0-10.6-0.6-15.6-1.1-19.6
		c-0.7-4.6-3.6-6.5-12.7-7V0h32.2V4.8z"/>
	<path class="st0" d="M260.3,4.7c-7,0.4-9.8,2.3-10.5,7.4c-0.5,4-1,10-1,21.4v51.9h-6.1l-51.9-65.2h-0.3v30.1c0,11,0.6,17.2,1,21
		c0.6,5.8,3.4,7.7,12.2,8.1v4.8H172v-4.8c7.2-0.4,10.3-2.3,10.9-7.8c0.6-4.1,1.1-10.3,1.1-21.3V22.7c0-8.7-0.1-10.3-2.5-13.4
		c-2.4-3.1-5.5-4.1-11-4.6V0h21.9l49.3,60h0.4V33.5c0-11.4-0.6-17.5-1-21.3c-0.7-5.2-3.6-7-12.5-7.6V0h31.6V4.7z"/>
	<g>
		<path class="st0" d="M10.9,104.7H7.1l-2.4-4H3.7v4H0.4V94.1h5.3c1,0,1.8,0.2,2.5,0.5c0.7,0.3,1.2,0.7,1.6,1.3
			c0.4,0.5,0.5,1.1,0.5,1.7c0,0.7-0.2,1.2-0.6,1.7c-0.4,0.5-0.9,0.8-1.5,1.1L10.9,104.7z M6.9,97.5c0-0.2-0.1-0.4-0.2-0.5
			c-0.1-0.2-0.3-0.3-0.5-0.4c-0.2-0.1-0.5-0.1-0.8-0.1H3.7v2.1h1.9c0.3,0,0.5,0,0.8-0.1c0.2-0.1,0.4-0.2,0.5-0.4
			C6.9,97.9,6.9,97.7,6.9,97.5z"/>
		<path class="st0" d="M21.6,104.7h-9V94.1h9v2.3h-5.8v1.8h4.9v2.3h-4.9v1.9h5.8V104.7z"/>
		<path class="st0" d="M27.2,104.7h-3.3V94.1h3.3V104.7z"/>
		<path class="st0" d="M40.3,104.7h-2.9l-4.3-5.3v5.3h-3.3V94.1h2.9l4.3,5.3v-5.3h3.3V104.7z"/>
		<path class="st0" d="M52.8,100.1c0,0.9-0.1,1.6-0.3,2.1c-0.2,0.5-0.5,1-1.1,1.4c-0.4,0.3-0.7,0.5-1.2,0.7
			c-0.4,0.2-0.8,0.3-1.3,0.4c-0.4,0.1-0.9,0.1-1.4,0.1c-1.5,0-2.7-0.4-3.7-1.2c-0.6-0.5-1-1-1.1-1.6c-0.2-0.6-0.2-1.3-0.2-2.3v-0.4
			V99c0-0.9,0.1-1.7,0.2-2.3c0.2-0.6,0.5-1.1,1.1-1.6c0.5-0.4,1-0.7,1.6-0.9c0.6-0.2,1.3-0.3,2.1-0.3c1.6,0,2.8,0.3,3.7,1
			c0.9,0.7,1.4,1.5,1.5,2.5h-3.3c-0.1-0.4-0.3-0.7-0.6-0.9c-0.3-0.2-0.7-0.3-1.3-0.3c-0.6,0-1,0.2-1.3,0.5c-0.1,0.1-0.2,0.2-0.3,0.4
			c-0.1,0.2-0.1,0.4-0.2,0.7c0,0.3-0.1,0.8-0.1,1.4s0,1.1,0.1,1.4c0,0.3,0.1,0.6,0.2,0.8c0.1,0.2,0.2,0.3,0.3,0.4
			c0.3,0.3,0.7,0.5,1.3,0.5c0.6,0,1.1-0.1,1.5-0.4c0.3-0.3,0.5-0.6,0.5-1.1v-0.2h-2v-2.2h5.2V100.1z"/>
		<path class="st0" d="M64.1,104.7h-9V94.1h9v2.3h-5.8v1.8h4.9v2.3h-4.9v1.9h5.8V104.7z"/>
		<path class="st0" d="M76.8,104.7H74l-4.3-5.3v5.3h-3.3V94.1h2.9l4.3,5.3v-5.3h3.3V104.7z"/>
		<path class="st0" d="M82.8,104.7h-3.3V94.1h3.3V104.7z"/>
		<path class="st0" d="M94.5,104.7h-9V94.1h9v2.3h-5.8v1.8h4.9v2.3h-4.9v1.9h5.8V104.7z"/>
		<path class="st0" d="M107.3,104.7h-3.8l-2.4-4h-1.1v4h-3.3V94.1h5.3c1,0,1.8,0.2,2.5,0.5c0.7,0.3,1.2,0.7,1.6,1.3
			c0.4,0.5,0.5,1.1,0.5,1.7c0,0.7-0.2,1.2-0.6,1.7c-0.4,0.5-0.9,0.8-1.5,1.1L107.3,104.7z M103.4,97.5c0-0.2-0.1-0.4-0.2-0.5
			c-0.1-0.2-0.3-0.3-0.5-0.4c-0.2-0.1-0.5-0.1-0.8-0.1h-1.9v2.1h1.9c0.3,0,0.5,0,0.8-0.1c0.2-0.1,0.4-0.2,0.5-0.4
			C103.3,97.9,103.4,97.7,103.4,97.5z"/>
		<path class="st0" d="M112.3,104.7H109V94.1h3.3V104.7z M113.6,90.4l-2.2,2.7h-1.8l0.9-2.7H113.6z"/>
		<path class="st0" d="M125.8,104.7h-3.4l-0.6-1.6h-4.1l-0.6,1.6h-3.4l4.8-10.6h2.5L125.8,104.7z M120.9,100.9l-1.1-2.8l-1.2,2.8
			H120.9z"/>
		<path class="st0" d="M126.6,100.8c0-0.5,0.5-0.9,1.1-0.9c0.7,0,1.1,0.4,1.1,0.9c0,0.5-0.4,0.9-1.1,0.9
			C127.1,101.7,126.6,101.3,126.6,100.8z"/>
		<path class="st0" d="M140.7,101.2c0,0.7-0.2,1.3-0.6,1.8c-0.4,0.5-0.9,1-1.6,1.3c-0.7,0.3-1.5,0.4-2.4,0.4c-0.9,0-1.7-0.1-2.4-0.4
			c-0.7-0.3-1.2-0.7-1.6-1.3c-0.4-0.5-0.6-1.1-0.6-1.8v-7.2h1v7.1c0,0.6,0.1,1.1,0.4,1.5c0.3,0.4,0.7,0.8,1.3,1
			c0.5,0.2,1.2,0.4,1.9,0.4c0.7,0,1.3-0.1,1.8-0.4c0.5-0.2,1-0.6,1.3-1c0.3-0.4,0.4-0.9,0.4-1.5v-7.1h1V101.2z"/>
		<path class="st0" d="M154.3,104.7h-1l-7.7-9.2v9.2h-1V94.1h1l7.7,9.2v-9.2h1V104.7z"/>
		<path class="st0" d="M159.4,104.7h-1V94.1h1V104.7z"/>
		<path class="st0" d="M171.2,94.1l-4.4,10.6H166l-4.4-10.6h1.1l3.7,9.2l3.7-9.2H171.2z"/>
		<path class="st0" d="M181.6,104.7h-8.1V94.1h8.1v0.7h-7.1V99h6v0.7h-6v4.3h7.1V104.7z"/>
		<path class="st0" d="M193.7,104.7h-1.2l-3.2-4.9h-3.7v4.9h-1V94.1h5.1c0.7,0,1.4,0.1,2,0.3c0.6,0.2,1,0.5,1.4,1
			c0.3,0.4,0.5,0.9,0.5,1.5c0,0.8-0.3,1.4-0.8,1.9c-0.5,0.5-1.3,0.8-2.3,0.9L193.7,104.7z M192.5,96.9c0-0.7-0.3-1.2-0.8-1.6
			c-0.5-0.4-1.2-0.5-2.1-0.5h-3.9v4.3h3.9c0.4,0,0.8,0,1.2-0.1c0.4-0.1,0.7-0.2,0.9-0.4c0.3-0.2,0.5-0.4,0.6-0.7
			C192.5,97.6,192.5,97.3,192.5,96.9z"/>
		<path class="st0" d="M204.8,101.8c0,0.4-0.1,0.8-0.3,1.2c-0.2,0.4-0.5,0.7-0.9,0.9c-0.4,0.3-0.9,0.5-1.4,0.6
			c-0.6,0.1-1.2,0.2-1.9,0.2c-0.6,0-1.2,0-1.7-0.1c-0.5-0.1-1-0.2-1.4-0.5c-0.4-0.2-0.9-0.5-1.3-0.8l0.7-0.6
			c0.4,0.3,0.8,0.6,1.2,0.8c0.4,0.2,0.8,0.3,1.2,0.4c0.4,0.1,0.9,0.1,1.4,0.1c0.7,0,1.3-0.1,1.8-0.3c0.5-0.2,0.9-0.4,1.2-0.8
			c0.3-0.3,0.4-0.7,0.4-1.2c0-0.6-0.2-1.1-0.7-1.5c-0.2-0.2-0.5-0.3-0.7-0.4c-0.3-0.1-0.7-0.2-1.2-0.2l-1.5-0.2
			c-1-0.1-1.8-0.4-2.4-0.8c-0.7-0.5-1-1.1-1-2c0-0.4,0.1-0.8,0.3-1.2c0.2-0.4,0.5-0.7,0.8-0.9c0.4-0.3,0.8-0.4,1.3-0.6
			c0.5-0.1,1.1-0.2,1.7-0.2c0.8,0,1.5,0.1,2.1,0.3c0.6,0.2,1.2,0.5,1.7,0.9l-0.7,0.5c-0.5-0.3-0.9-0.6-1.4-0.7
			c-0.5-0.2-1.1-0.2-1.8-0.2c-1,0-1.7,0.2-2.3,0.6c-0.5,0.4-0.8,0.9-0.8,1.6c0,0.6,0.2,1.1,0.7,1.4c0.2,0.2,0.6,0.3,0.9,0.4
			c0.4,0.1,0.7,0.2,1.1,0.2l1.4,0.2c0.6,0.1,1.1,0.2,1.4,0.3c0.3,0.1,0.7,0.2,0.9,0.4c0.4,0.2,0.7,0.5,0.9,0.9
			C204.7,101,204.8,101.4,204.8,101.8z"/>
		<path class="st0" d="M208.9,104.7h-1V94.1h1V104.7z"/>
		<path class="st0" d="M220.5,94.8h-4v9.9h-1v-9.9h-4v-0.7h8.9V94.8z"/>
		<path class="st0" d="M232,104.7h-1.1l-1.2-2.6h-6.2l-1.1,2.6h-1.1l4.9-10.6h0.9L232,104.7z M229.5,101.4l-2.8-6.2l-2.8,6.2H229.5z
			"/>
		<path class="st0" d="M243.4,104.7h-1.2l-3.2-4.9h-3.7v4.9h-1V94.1h5.1c0.7,0,1.4,0.1,2,0.3c0.6,0.2,1,0.5,1.4,1
			c0.3,0.4,0.5,0.9,0.5,1.5c0,0.8-0.3,1.4-0.8,1.9c-0.5,0.5-1.3,0.8-2.3,0.9L243.4,104.7z M242.2,96.9c0-0.7-0.3-1.2-0.8-1.6
			c-0.5-0.4-1.2-0.5-2.1-0.5h-3.9v4.3h3.9c0.4,0,0.8,0,1.2-0.1c0.4-0.1,0.7-0.2,0.9-0.4c0.3-0.2,0.5-0.4,0.6-0.7
			C242.1,97.6,242.2,97.3,242.2,96.9z"/>
		<path class="st0" d="M247.6,104.7h-1V94.1h1V104.7z"/>
		<path class="st0" d="M260.7,104.7h-1.1l-1.2-2.6h-6.2l-1.1,2.6H250l4.9-10.6h0.9L260.7,104.7z M258.1,101.4l-2.8-6.2l-2.8,6.2
			H258.1z"/>
	</g>
	<path class="st0" d="M70.5,75.3c-2.8-2.8-5.2-6.3-9.8-13.4c-3.9-5.9-8.9-14.6-11-18.4C59,39.6,66,33.1,66,21.7
		c0-8-3.6-13.4-8.9-16.8C52,1.6,45.7,0.8,35.5,0.8H0v4c10.4,0.7,11.5,1.5,11.5,12.1v50.2c0,10.7-1.2,11.5-11.5,12.4V85h36.9v-5.5
		c-10.4-0.8-11.5-1.7-11.5-12.4v-19h4.1c5,0,7.2,1.5,9.3,5.1c3.6,6.5,7.7,14.2,11.5,19.8c5.3,8.3,10.4,11.7,23.6,12.2
		c1.5,0,3.1,0.1,4.3,0.1l0.7-4.3C76.3,80.1,73.6,78.7,70.5,75.3z M42.7,29.3c0,0-3.6,3.6-8,3.6c-0.6,0-1.3-0.1-1.9-0.2
		c-3-3.9-0.5-7.1,0-7.6c0.8-0.3,1.3-0.6,1.3-0.6c0,0,0,0,0,0c2.1-1.5,2.3-3.8,2.1-5.6c2.5,1,5.7,0.6,5.9,0.5c0,0,0.1,0,0.1,0
		c1.2-0.3,4.6-0.7,5.9,0.7c0.2,0.2,0.4,0.3,0.6,0.3c0.2,0,0.4-0.1,0.6-0.2c0.3-0.3,0.3-0.8,0-1.1c-2.2-2.4-7-1.3-7.5-1.2
		c-1.2,0.2-4.5,0.3-6-1.1c-0.1-0.1-0.1-0.2-0.2-0.2c-0.1-0.1-0.1-0.2-0.1-0.3c0-0.1-0.1-0.2-0.2-0.3c-0.2-0.5-0.2-1.1-0.2-1.7
		c0.3-2.1,1.1-3.5,2.5-4.2c1-0.5,2-0.4,2.1-0.4c0.1,0,0.2,0,0.3,0c2.2,0.1,4.2,0.5,6.1,1.3c0,0,0,0,0,0c0.1,0,7.6,2.6,9.3,7.9
		c0.5,1.5,0.3,3-0.6,4.4c-1.8,2.9-6.4,5.2-11.7,6C43,29.1,42.8,29.2,42.7,29.3z M27.4,38.8c-1.1,0-1.9-1.9-2.6-3.7
		c-0.4-1-0.9-2.1-1.4-3c-1.8-2.8-3.4-9.4,0.2-15.3c2.1-3.5,6.7-6.1,11.8-7c-0.8,0.9-1.5,2.2-1.7,4.1c-0.2,1.3,0,2.4,0.6,3.2
		c0.4,1.1,1.3,4.3-1,5.9c-0.2,0.1-2.5,1.4-4.2,0.8c-0.9-0.3-1.5-1.1-1.9-2.3c-0.1-0.4-0.6-0.7-1-0.5s-0.7,0.6-0.5,1
		c0.6,1.7,1.6,2.8,2.9,3.3c0.5,0.2,1.1,0.3,1.6,0.3c0.2,0,0.4,0,0.5,0c-0.2,0.4-0.4,0.8-0.5,1.3c-0.4,1.6-0.5,4,1.4,6.6
		c-0.1,0.7-0.5,3.8-3.3,5.1C27.9,38.7,27.7,38.8,27.4,38.8z"/>
</g>
</svg>
